<!DOCTYPE svg PUBLIC "-//W3C//DTD SVG 1.1//EN" "http://www.w3.org/Graphics/SVG/1.1/DTD/svg11.dtd">
<!-- Uploaded to: SVG Repo, www.svgrepo.com, Transformed by: SVG Repo Mixer Tools -->
<svg fill="#fff" height="800px" width="800px" version="1.1" id="Layer_1" xmlns="http://www.w3.org/2000/svg" xmlns:xlink="http://www.w3.org/1999/xlink" viewBox="0 0 512 512" xml:space="preserve" stroke="#fff">
<g id="SVGRepo_bgCarrier" stroke-width="0"/>
<g id="SVGRepo_tracerCarrier" stroke-linecap="round" stroke-linejoin="round"/>
<g id="SVGRepo_iconCarrier"> <g> <g> <path d="M437.019,74.981C388.668,26.628,324.379,0,256,0S123.332,26.628,74.981,74.981C26.629,123.333,0,187.62,0,256 c0,68.38,26.628,132.668,74.981,181.019C123.333,485.371,187.621,512,256,512s132.668-26.628,181.019-74.981 C485.371,388.667,512,324.38,512,256S485.372,123.332,437.019,74.981z M256,480.653C132.125,480.653,31.347,379.874,31.347,256 S132.125,31.347,256,31.347S480.653,132.126,480.653,256S379.875,480.653,256,480.653z"/> </g> </g> <g> <g> <path d="M170.733,124.363v263.275L398.736,256L170.733,124.363z M202.081,178.658L336.042,256l-133.961,77.342V178.658z"/> </g> </g> </g>
</svg>